<?xml version="1.0" encoding="utf-8"?>
<!-- Generator: Adobe Illustrator 27.7.0, SVG Export Plug-In . SVG Version: 6.00 Build 0)  -->
<svg version="1.1" id="Layer_1" xmlns="http://www.w3.org/2000/svg" xmlns:xlink="http://www.w3.org/1999/xlink" x="0px" y="0px"
	 viewBox="0 0 1440 810" style="enable-background:new 0 0 1440 810;" xml:space="preserve">
<style type="text/css">
	.st0{clip-path:url(#SVGID_00000099642248450341626250000015585947600333207439_);}
	.st1{fill-rule:evenodd;clip-rule:evenodd;fill:#FFFFFF;}
	.st2{fill-rule:evenodd;clip-rule:evenodd;fill-opacity:0;}
</style>
<g>
	<g>
		<defs>
			<rect id="SVGID_1_" x="36.2" y="20.4" width="1367.6" height="769.3"/>
		</defs>
		<clipPath id="SVGID_00000059285597010365586230000002620060329719115397_">
			<use xlink:href="#SVGID_1_"  style="overflow:visible;"/>
		</clipPath>
		<g style="clip-path:url(#SVGID_00000059285597010365586230000002620060329719115397_);">
			<path class="st1" d="M36.2,20.4h1367.6v769.3H36.2V20.4z"/>
			<path class="st2" d="M78.9,115.7h286.8v578.6H78.9V115.7z"/>
			<g transform="matrix(0.19831417322834644 0.0 0.0 0.19831391076115484 29.958103937007873 66.92634304461941)">
				<g>
					<defs>
						<rect id="SVGID_00000093890910829527815190000014762138558686636683_" x="826.2" y="1415.4" width="286.8" height="578.6"/>
					</defs>
					<clipPath id="SVGID_00000002378435465985832090000009683914098573882555_">
						<use xlink:href="#SVGID_00000093890910829527815190000014762138558686636683_"  style="overflow:visible;"/>
					</clipPath>
					
						<g transform="matrix(1 0 0 1 1.525879e-05 0)" style="clip-path:url(#SVGID_00000002378435465985832090000009683914098573882555_);enable-background:new    ;">
						
							<image style="overflow:visible;" width="1015" height="2048" xlink:href="341963E9CCB5A59D.jpg"  transform="matrix(1.4246 0 0 1.4246 246.6208 245.9392)">
						</image>
					</g>
				</g>
			</g>
			<path class="st2" d="M365.6,115.7h286.8v578.6H365.6V115.7z"/>
			<g transform="matrix(0.19831417322834644 0.0 0.0 0.19831391076115484 231.24499632545928 66.92634304461941)">
				<g>
					<defs>
						<rect id="SVGID_00000089552697386923087020000011667302165131795897_" x="1257.2" y="1415.4" width="286.8" height="578.6"/>
					</defs>
					<clipPath id="SVGID_00000181086324562731914290000000970601767625416835_">
						<use xlink:href="#SVGID_00000089552697386923087020000011667302165131795897_"  style="overflow:visible;"/>
					</clipPath>
					<g style="clip-path:url(#SVGID_00000181086324562731914290000000970601767625416835_);enable-background:new    ;">
						
							<image style="overflow:visible;" width="1015" height="2048" xlink:href="341963E9CCB5A59F.jpg"  transform="matrix(1.4246 0 0 1.4246 677.5946 245.9392)">
						</image>
					</g>
				</g>
			</g>
			<path class="st2" d="M652.4,115.7h286.8v578.6H652.4V115.7z"/>
			<g transform="matrix(0.19831496062992127 0.0 0.0 0.1983141732283464 432.53285905511814 66.92634304461941)">
				<g>
					<defs>
						<rect id="SVGID_00000091714007918301557080000009740225825601672083_" x="1688.2" y="1415.4" width="286.8" height="578.6"/>
					</defs>
					<clipPath id="SVGID_00000041268142191307120580000009374098337254072451_">
						<use xlink:href="#SVGID_00000091714007918301557080000009740225825601672083_"  style="overflow:visible;"/>
					</clipPath>
					
						<g transform="matrix(1 0 0 1 0 -1.525879e-05)" style="clip-path:url(#SVGID_00000041268142191307120580000009374098337254072451_);enable-background:new    ;">
						
							<image style="overflow:visible;" width="1015" height="2048" xlink:href="341963E9CCB5A59A.jpg"  transform="matrix(1.4246 0 0 1.4246 1108.5649 245.9392)">
						</image>
					</g>
				</g>
			</g>
			<path class="st2" d="M1007.6,98.9h353.5v612.2h-353.5V98.9z"/>
			<g transform="matrix(0.21045931758530184 0.0 0.0 0.21045984251968503 681.9104254593176 55.120833595800526)">
				<g>
					<defs>
						<rect id="SVGID_00000106837477770166725560000009190210943758681760_" x="2210.8" y="1356.3" width="353.5" height="612.2"/>
					</defs>
					<clipPath id="SVGID_00000124844328767814280850000000077499595052272823_">
						<use xlink:href="#SVGID_00000106837477770166725560000009190210943758681760_"  style="overflow:visible;"/>
					</clipPath>
					
						<g transform="matrix(1 0 0 1 1.220703e-04 0)" style="clip-path:url(#SVGID_00000124844328767814280850000000077499595052272823_);enable-background:new    ;">
						
							<image style="overflow:visible;" width="1179" height="2042" xlink:href="341963E9CCB5A59B.jpg"  transform="matrix(1.4246 0 0 1.4246 1547.7261 207.9277)">
						</image>
					</g>
				</g>
			</g>
		</g>
	</g>
</g>
</svg>
