<?xml version="1.0" encoding="utf-8"?>
<!-- Generator: Adobe Illustrator 27.7.0, SVG Export Plug-In . SVG Version: 6.00 Build 0)  -->
<svg version="1.1" xmlns="http://www.w3.org/2000/svg" xmlns:xlink="http://www.w3.org/1999/xlink" x="0px" y="0px"
	 viewBox="0 0 1440 810" style="enable-background:new 0 0 1440 810;" xml:space="preserve">
<style type="text/css">
	.st0{display:none;}
	.st1{display:inline;}
	.st2{clip-path:url(#SVGID_00000021809185285775713900000011180848231936318906_);}
	.st3{fill-rule:evenodd;clip-rule:evenodd;fill:#FFFFFF;}
	.st4{fill-rule:evenodd;clip-rule:evenodd;fill-opacity:0;}
	.st5{clip-path:url(#SVGID_00000090973055433306857470000012821678337983818397_);}
</style>
<g id="Layer_1" class="st0">
	<g class="st1">
		<defs>
			<rect id="SVGID_1_" x="240" y="135" width="960" height="540"/>
		</defs>
		<clipPath id="SVGID_00000129168407370972255170000016241561487355205806_">
			<use xlink:href="#SVGID_1_"  style="overflow:visible;"/>
		</clipPath>
		<g style="clip-path:url(#SVGID_00000129168407370972255170000016241561487355205806_);">
			<path class="st3" d="M240,135h960v540H240V135z"/>
			<path class="st4" d="M701.3,271.1h100.6V405H701.3V271.1z"/>
			<g transform="matrix(0.0892984251968504 0.0 0.0 0.08929921259842523 461.32464068241467 136.05222834645667)">
				<g>
					<defs>
						<rect id="SVGID_00000023984935386302628020000012741619785226972344_" x="3200.4" y="2194.8" width="100.6" height="133.9"/>
					</defs>
					<clipPath id="SVGID_00000178923666646224967440000011685365449347326848_">
						<use xlink:href="#SVGID_00000023984935386302628020000012741619785226972344_"  style="overflow:visible;"/>
					</clipPath>
					<g style="clip-path:url(#SVGID_00000178923666646224967440000011685365449347326848_);enable-background:new    ;">
						
							<image style="overflow:visible;" width="1126" height="1500" xlink:href="BBD4A29CEA785D2.jpeg"  transform="matrix(1 0 0 1 2687.6301 1511.775)">
						</image>
					</g>
				</g>
			</g>
			<path class="st4" d="M810.8,212.4h103.1v137.4H810.8V212.4z"/>
			<g transform="matrix(0.09159081364829395 0.0 0.0 0.09159212598425197 570.7913538057743 77.41733202099738)">
				<g>
					<defs>
						<rect id="SVGID_00000068637524551789667050000007481143303110618010_" x="3131.8" y="2155.2" width="103.1" height="137.4"/>
					</defs>
					<clipPath id="SVGID_00000157991838161819860740000007576435301676059548_">
						<use xlink:href="#SVGID_00000068637524551789667050000007481143303110618010_"  style="overflow:visible;"/>
					</clipPath>
					<g style="clip-path:url(#SVGID_00000157991838161819860740000007576435301676059548_);enable-background:new    ;">
						
							<image style="overflow:visible;" width="1126" height="1500" xlink:href="BBD4A29CEA785D6.jpeg"  transform="matrix(1 0 0 1 2620.3447 1473.9279)">
						</image>
					</g>
				</g>
			</g>
			<path class="st4" d="M557.2,212.5h135.2v180.2H557.2V212.5z"/>
			<g transform="matrix(0.1201002624671916 0.0 0.0 0.1201020997375328 317.1744624671916 77.49714619422572)">
				<g>
					<defs>
						<rect id="SVGID_00000096753946549576404040000012360066678309965216_" x="2493.7" y="1784" width="135.2" height="180.2"/>
					</defs>
					<clipPath id="SVGID_00000090257347463784869160000015262404340827152039_">
						<use xlink:href="#SVGID_00000096753946549576404040000012360066678309965216_"  style="overflow:visible;"/>
					</clipPath>
					<g style="clip-path:url(#SVGID_00000090257347463784869160000015262404340827152039_);enable-background:new    ;">
						
							<image style="overflow:visible;" width="1126" height="1500" xlink:href="BBD4A29CEA785D6.jpeg"  transform="matrix(1 0 0 1 1998.3347 1124.0446)">
						</image>
					</g>
				</g>
			</g>
			<path class="st4" d="M412.4,212.4h135.2v180.3H412.4V212.4z"/>
			<g transform="matrix(0.08804225721784777 0.0 0.0 0.08804278215223096 172.37606141732283 77.41771496062992)">
				<g>
					<defs>
						<rect id="SVGID_00000044897623982734896830000004295106418356551050_" x="3426.4" y="2467.2" width="135.2" height="180.3"/>
					</defs>
					<clipPath id="SVGID_00000115487775877299216680000008245281223554347427_">
						<use xlink:href="#SVGID_00000044897623982734896830000004295106418356551050_"  style="overflow:visible;"/>
					</clipPath>
					<g style="clip-path:url(#SVGID_00000115487775877299216680000008245281223554347427_);enable-background:new    ;">
						
							<image style="overflow:visible;" width="1536" height="2048" xlink:href="BBD4A29CEA785D2.jpeg"  transform="matrix(1 0 0 1 2725.9717 1533.3417)">
						</image>
					</g>
				</g>
			</g>
			<path class="st4" d="M267.6,212.5h135.2v180.3H267.6V212.5z"/>
			<g transform="matrix(0.08804225721784777 0.0 0.0 0.08804278215223096 27.58120131233596 77.49776745406824)">
				<g>
					<defs>
						<rect id="SVGID_00000049927717065391121160000013132201360159102621_" x="3426.4" y="2467.2" width="135.2" height="180.3"/>
					</defs>
					<clipPath id="SVGID_00000084517948533033508130000008720928356701587629_">
						<use xlink:href="#SVGID_00000049927717065391121160000013132201360159102621_"  style="overflow:visible;"/>
					</clipPath>
					<g style="clip-path:url(#SVGID_00000084517948533033508130000008720928356701587629_);enable-background:new    ;">
						
							<image style="overflow:visible;" width="1536" height="2048" xlink:href="BBD4A29CEA785D2.jpeg"  transform="matrix(1 0 0 1 2725.9717 1533.3417)">
						</image>
					</g>
				</g>
			</g>
			<path class="st4" d="M810.8,357.5h103.1V495H810.8V357.5z"/>
			<g transform="matrix(0.10071417322834646 0.0 0.0 0.10071312335958005 570.7926433070867 222.51969763779525)">
				<g>
					<defs>
						<rect id="SVGID_00000007391287022361194060000013312958826991681693_" x="2843.4" y="1954.2" width="103.1" height="137.5"/>
					</defs>
					<clipPath id="SVGID_00000108988803192729529160000008451521130825167513_">
						<use xlink:href="#SVGID_00000007391287022361194060000013312958826991681693_"  style="overflow:visible;"/>
					</clipPath>
					<g style="clip-path:url(#SVGID_00000108988803192729529160000008451521130825167513_);enable-background:new    ;">
						
							<image style="overflow:visible;" width="1024" height="1365" xlink:href="BBD4A29CEA785DE.jpeg"  transform="matrix(1 0 0 1 2382.9856 1340.4426)">
						</image>
					</g>
				</g>
			</g>
			<path class="st4" d="M922.2,212.5h250.2v325.7H922.2V212.5z"/>
			<g transform="matrix(0.21386614173228347 0.0 0.0 0.21386614173228347 682.1952566929134 77.49737532808399)">
				<g>
					<defs>
						<rect id="SVGID_00000023960583439273907290000010013813988441655716_" x="1582.1" y="1229.9" width="250.2" height="325.7"/>
					</defs>
					<clipPath id="SVGID_00000154425805819761232470000010990930787602422147_">
						<use xlink:href="#SVGID_00000023960583439273907290000010013813988441655716_"  style="overflow:visible;"/>
					</clipPath>
					<g style="clip-path:url(#SVGID_00000154425805819761232470000010990930787602422147_);enable-background:new    ;">
						
							<image style="overflow:visible;" width="1170" height="1523" xlink:href="BBD4A29CEA785DE.jpeg"  transform="matrix(1 0 0 1 1122.198 631.2364)">
						</image>
					</g>
				</g>
			</g>
			<path class="st4" d="M389.9,400.3H267.6v163h122.3V400.3z"/>
			<g transform="matrix(-0.11943412073490813 0.0 0.0 0.11943517060367455 149.8807687664042 265.26623569553806)">
				<g>
					<defs>
						<rect id="SVGID_00000107579097015393369420000001870629164614188219_" x="-1558.6" y="1731.3" width="122.3" height="163"/>
					</defs>
					<clipPath id="SVGID_00000080193558212841456940000003319457677711264929_">
						<use xlink:href="#SVGID_00000107579097015393369420000001870629164614188219_"  style="overflow:visible;"/>
					</clipPath>
					<g style="clip-path:url(#SVGID_00000080193558212841456940000003319457677711264929_);enable-background:new    ;">
						
							<image style="overflow:visible;" width="1024" height="1365" xlink:href="BBD4A29CEA785D2.jpeg"  transform="matrix(1 0 0 1 -2009.478 1130.3219)">
						</image>
					</g>
				</g>
			</g>
			<path class="st4" d="M398.6,400.3h262.5v196.8H398.6L398.6,400.3z"/>
			<g transform="matrix(0.22263412073490813 0.0 0.0 0.22263700787401577 158.59584225721784 265.26505065616794)">
				<g>
					<defs>
						<rect id="SVGID_00000145749233747621135290000007081257308104323482_" x="1536.3" y="950" width="262.5" height="196.8"/>
					</defs>
					<clipPath id="SVGID_00000179604044742583827430000012927674116840972471_">
						<use xlink:href="#SVGID_00000145749233747621135290000007081257308104323482_"  style="overflow:visible;"/>
					</clipPath>
					<g style="clip-path:url(#SVGID_00000179604044742583827430000012927674116840972471_);enable-background:new    ;">
						
							<image style="overflow:visible;" width="1179" height="884" xlink:href="BBD4A29CEA785D2.jpeg"  transform="matrix(1 0 0 1 1078.0024 606.3682)">
						</image>
					</g>
				</g>
			</g>
			<path class="st4" d="M702,414.7h100.5v134.1H702V414.7z"/>
			<g transform="matrix(0.06546141732283464 0.0 0.0 0.06546167979002625 461.97373674540677 279.74672388451444)">
				<g>
					<defs>
						<rect id="SVGID_00000042722357367062591640000001261037443403403942_" x="4384" y="3019.2" width="100.5" height="134.1"/>
					</defs>
					<clipPath id="SVGID_00000039106125707456315400000005505195798810728889_">
						<use xlink:href="#SVGID_00000042722357367062591640000001261037443403403942_"  style="overflow:visible;"/>
					</clipPath>
					<g style="clip-path:url(#SVGID_00000039106125707456315400000005505195798810728889_);enable-background:new    ;">
						
							<image style="overflow:visible;" width="1536" height="2048" xlink:href="B25BB80ADE3657A3.jpeg"  transform="matrix(1 0 0 1 3666.3052 2062.2651)">
						</image>
					</g>
				</g>
			</g>
		</g>
	</g>
	
		<image style="display:inline;overflow:visible;" width="4032" height="3024" xlink:href="../../../../../wegohome/assets/images/min.c03.jpg"  transform="matrix(-6.369233e-02 0 0 -6.369233e-02 1386.6428 742.481)">
	</image>
	
		<image style="display:inline;overflow:visible;" width="1126" height="1500" xlink:href="../../../../../wegohome/assets/images/kthxbaiis.JPG"  transform="matrix(0.1225 0 0 0.1225 1182.4153 354.4079)">
	</image>
</g>
<g id="Layer_2">
	<g>
		<defs>
			<rect id="SVGID_00000182500776893083047210000017028609760492536765_" width="1440" height="810"/>
		</defs>
		<clipPath id="SVGID_00000137107589119037056500000013866362898411455663_">
			<use xlink:href="#SVGID_00000182500776893083047210000017028609760492536765_"  style="overflow:visible;"/>
		</clipPath>
		<g style="clip-path:url(#SVGID_00000137107589119037056500000013866362898411455663_);">
			<path class="st3" d="M0,0h1440v810H0V0z"/>
			<path class="st4" d="M692,204.1h150.8V405H692V204.1z"/>
			<g transform="matrix(0.0892984251968504 0.0 0.0 0.08929921259842523 461.32464068241467 136.05222834645667)">
				<g>
					<defs>
						<rect id="SVGID_00000029729427028818465240000002005907756299449747_" x="3352.2" y="1786.3" width="150.8" height="200.9"/>
					</defs>
					<clipPath id="SVGID_00000040536778396371540090000002662470149369689779_">
						<use xlink:href="#SVGID_00000029729427028818465240000002005907756299449747_"  style="overflow:visible;"/>
					</clipPath>
					
						<g transform="matrix(1 0 0 1 0 0)" style="clip-path:url(#SVGID_00000040536778396371540090000002662470149369689779_);enable-background:new    ;">
						
							<image style="overflow:visible;" width="1126" height="1500" xlink:href="B25BB80ADE3657BC.jpg"  transform="matrix(1.5 0 0 1.5 2583.0625 761.7791)">
						</image>
					</g>
				</g>
			</g>
			<path class="st4" d="M856.2,116.1h154.7v206.1H856.2V116.1z"/>
			<g transform="matrix(0.09159081364829395 0.0 0.0 0.09159212598425197 570.7913538057743 77.41733202099738)">
				<g>
					<defs>
						<rect id="SVGID_00000106848315089148689400000002879215148076812991_" x="3883.1" y="1444.6" width="154.7" height="206.1"/>
					</defs>
					<clipPath id="SVGID_00000163067342525999448720000009731627709932059521_">
						<use xlink:href="#SVGID_00000106848315089148689400000002879215148076812991_"  style="overflow:visible;"/>
					</clipPath>
					
						<g transform="matrix(1 0 0 1 -2.441406e-04 -3.051758e-05)" style="clip-path:url(#SVGID_00000163067342525999448720000009731627709932059521_);enable-background:new    ;">
						
							<image style="overflow:visible;" width="1126" height="1500" xlink:href="B25BB80ADE3657A3.jpg"  transform="matrix(1.5 0 0 1.5 3115.9797 422.6206)">
						</image>
					</g>
				</g>
			</g>
			<path class="st4" d="M475.8,116.2h202.8v270.2H475.8V116.2z"/>
			<g transform="matrix(0.1201002624671916 0.0 0.0 0.1201020997375328 317.1744624671916 77.49714619422572)">
				<g>
					<defs>
						<rect id="SVGID_00000034068357779809550130000012558488310636544652_" x="2063.5" y="1312.5" width="202.8" height="270.2"/>
					</defs>
					<clipPath id="SVGID_00000142857703871132672190000018062333822331496611_">
						<use xlink:href="#SVGID_00000034068357779809550130000012558488310636544652_"  style="overflow:visible;"/>
					</clipPath>
					<g style="clip-path:url(#SVGID_00000142857703871132672190000018062333822331496611_);enable-background:new    ;">
						
							<image style="overflow:visible;" width="1126" height="1500" xlink:href="B25BB80ADE3657A6.jpg"  transform="matrix(1.5 0 0 1.5 1320.46 322.6305)">
						</image>
					</g>
				</g>
			</g>
			<path class="st4" d="M258.6,116.1h202.8v270.5H258.6V116.1z"/>
			<g transform="matrix(0.08804225721784777 0.0 0.0 0.08804278215223096 172.37606141732283 77.41771496062992)">
				<g>
					<defs>
						<rect id="SVGID_00000000919738939675553680000014175579659647404706_" x="2029.5" y="1840.4" width="202.8" height="270.5"/>
					</defs>
					<clipPath id="SVGID_00000070085590672454569110000012793931271577859505_">
						<use xlink:href="#SVGID_00000000919738939675553680000014175579659647404706_"  style="overflow:visible;"/>
					</clipPath>
					
						<g transform="matrix(1 0 0 1 -6.103516e-05 -3.051758e-05)" style="clip-path:url(#SVGID_00000070085590672454569110000012793931271577859505_);enable-background:new    ;">
						
							<image style="overflow:visible;" width="1536" height="2048" xlink:href="B25BB80ADE3657A1.jpg"  transform="matrix(1.5 0 0 1.5 978.9423 439.6586)">
						</image>
					</g>
				</g>
			</g>
			<path class="st4" d="M41.4,116.2h202.8v270.5H41.4L41.4,116.2z"/>
			<g transform="matrix(0.08804225721784777 0.0 0.0 0.08804278215223096 27.58120131233596 77.49776745406824)">
				<g>
					<defs>
						<rect id="SVGID_00000075134658462963907900000003177685637496848262_" x="1207.2" y="1840.9" width="202.8" height="270.5"/>
					</defs>
					<clipPath id="SVGID_00000115482949283183265440000015691898010769167290_">
						<use xlink:href="#SVGID_00000075134658462963907900000003177685637496848262_"  style="overflow:visible;"/>
					</clipPath>
					
						<g transform="matrix(1 0 0 1 0 3.051758e-05)" style="clip-path:url(#SVGID_00000115482949283183265440000015691898010769167290_);enable-background:new    ;">
						
							<image style="overflow:visible;" width="1536" height="2048" xlink:href="B25BB80ADE3657A2.jpg"  transform="matrix(1.5 0 0 1.5 156.6366 440.1132)">
						</image>
					</g>
				</g>
			</g>
			<path class="st4" d="M856.2,333.8h154.7V540H856.2V333.8z"/>
			<g transform="matrix(0.10071417322834646 0.0 0.0 0.10071312335958005 570.7926433070867 222.51969763779525)">
				<g>
					<defs>
						<rect id="SVGID_00000098212342151959545520000002935734487057237140_" x="3524.4" y="2025.4" width="154.7" height="206.2"/>
					</defs>
					<clipPath id="SVGID_00000124869052634052457710000000781120956636520850_">
						<use xlink:href="#SVGID_00000098212342151959545520000002935734487057237140_"  style="overflow:visible;"/>
					</clipPath>
					
						<g transform="matrix(1 0 0 1 0 0)" style="clip-path:url(#SVGID_00000124869052634052457710000000781120956636520850_);enable-background:new    ;">
						
							<image style="overflow:visible;" width="1024" height="1365" xlink:href="B25BB80ADE3657A0.jpg"  transform="matrix(1.5 0 0 1.5 2833.7305 1104.7218)">
						</image>
					</g>
				</g>
			</g>
			<path class="st4" d="M1023.3,116.2h375.3v488.6h-375.3V116.2z"/>
			<g transform="matrix(0.21386614173228347 0.0 0.0 0.21386614173228347 682.1952566929134 77.49737532808399)">
				<g>
					<defs>
						<rect id="SVGID_00000005224581880307581140000006288630608919169929_" x="2284.7" y="1079.1" width="375.3" height="488.6"/>
					</defs>
					<clipPath id="SVGID_00000030480542533716481000000001107352747426191032_">
						<use xlink:href="#SVGID_00000005224581880307581140000006288630608919169929_"  style="overflow:visible;"/>
					</clipPath>
					<g style="clip-path:url(#SVGID_00000030480542533716481000000001107352747426191032_);enable-background:new    ;">
						
							<image style="overflow:visible;" width="1170" height="1523" xlink:href="B25BB80ADE3657AC.jpg"  transform="matrix(1.5 0 0 1.5 1594.9128 181.1821)">
						</image>
					</g>
				</g>
			</g>
			<path class="st4" d="M224.8,397.9H41.4v244.5h183.5V397.9z"/>
			<g transform="matrix(-0.11943412073490813 0.0 0.0 0.11943517060367455 149.8807687664042 265.26623569553806)">
				<g>
					<defs>
						<rect id="SVGID_00000050658319584087446920000002633171730013501088_" x="48.8" y="2012" width="183.5" height="244.5"/>
					</defs>
					<clipPath id="SVGID_00000057850944377836450200000010051146148422405031_">
						<use xlink:href="#SVGID_00000050658319584087446920000002633171730013501088_"  style="overflow:visible;"/>
					</clipPath>
					<g style="clip-path:url(#SVGID_00000057850944377836450200000010051146148422405031_);enable-background:new    ;">
						
							<image style="overflow:visible;" width="1024" height="1365" xlink:href="B25BB80ADE3657C2.jpg"  transform="matrix(1.5 0 0 1.5 -627.4627 1110.5046)">
						</image>
					</g>
				</g>
			</g>
			<path class="st4" d="M237.9,397.9h393.7v295.2H237.9L237.9,397.9z"/>
			<g transform="matrix(0.22263412073490813 0.0 0.0 0.22263700787401577 158.59584225721784 265.26505065616794)">
				<g>
					<defs>
						<rect id="SVGID_00000093886478304785662540000002286988051046857919_" x="1043.6" y="1111.1" width="393.7" height="295.2"/>
					</defs>
					<clipPath id="SVGID_00000163070066637110059250000016330673006198199981_">
						<use xlink:href="#SVGID_00000093886478304785662540000002286988051046857919_"  style="overflow:visible;"/>
					</clipPath>
					
						<g transform="matrix(1 0 0 1 0 0)" style="clip-path:url(#SVGID_00000163070066637110059250000016330673006198199981_);enable-background:new    ;">
						
							<image style="overflow:visible;" width="1179" height="884" xlink:href="B25BB80ADE3657CD.jpg"  transform="matrix(1.5 0 0 1.5 356.1806 595.7344)">
						</image>
					</g>
				</g>
			</g>
			<path class="st4" d="M693,419.6h150.8v201.1H693V419.6z"/>
			<g transform="matrix(0.06546141732283464 0.0 0.0 0.06546167979002625 461.97373674540677 279.74672388451444)">
				<g>
					<defs>
						<rect id="SVGID_00000063594205255186203990000017553830797778201488_" x="4605.2" y="3572.2" width="150.8" height="201.1"/>
					</defs>
					<clipPath id="SVGID_00000072994287827570626780000013823902580414640314_">
						<use xlink:href="#SVGID_00000063594205255186203990000017553830797778201488_"  style="overflow:visible;"/>
					</clipPath>
					<g style="clip-path:url(#SVGID_00000072994287827570626780000013823902580414640314_);enable-background:new    ;">
						
							<image style="overflow:visible;" width="1536" height="2048" xlink:href="B25BB80ADE3657CE.jpg"  transform="matrix(1.5 0 0 1.5 3528.6179 2136.7109)">
						</image>
					</g>
				</g>
			</g>
		</g>
	</g>
</g>
</svg>
