<?xml version="1.0" encoding="utf-8"?>
<!-- Generator: Adobe Illustrator 27.7.0, SVG Export Plug-In . SVG Version: 6.00 Build 0)  -->
<svg version="1.1" id="Layer_1" xmlns="http://www.w3.org/2000/svg" xmlns:xlink="http://www.w3.org/1999/xlink" x="0px" y="0px"
	 viewBox="0 0 1440 810" style="enable-background:new 0 0 1440 810;" xml:space="preserve">
<style type="text/css">
	.st0{clip-path:url(#SVGID_00000004517286934567437350000010866497751970477701_);}
	.st1{fill-rule:evenodd;clip-rule:evenodd;fill:#FFFEFC;}
	.st2{fill-rule:evenodd;clip-rule:evenodd;fill-opacity:0;}
	.st3{fill:#110804;}
	.st4{fill:none;stroke:#110804;stroke-linejoin:round;stroke-miterlimit:10;}
</style>
<g>
	<defs>
		<rect id="SVGID_1_" width="1440" height="810"/>
	</defs>
	<clipPath id="SVGID_00000108302629468190411460000004545547116251857083_">
		<use xlink:href="#SVGID_1_"  style="overflow:visible;"/>
	</clipPath>
	<g style="clip-path:url(#SVGID_00000108302629468190411460000004545547116251857083_);">
		<path class="st1" d="M0,0h1440v810H0V0z"/>
		<path class="st2" d="M61.7,3.6h285.9v92.1H61.7L61.7,3.6z"/>
		<path class="st3" d="M91.3,30.1c-0.5-1-1.2-1.7-2.1-2.2c-0.9-0.5-1.9-0.8-3.1-0.8c-1.3,0-2.4,0.3-3.4,0.9c-1,0.6-1.8,1.4-2.4,2.5
			c-0.6,1.1-0.8,2.3-0.8,3.7c0,1.4,0.3,2.6,0.8,3.7c0.6,1.1,1.4,1.9,2.4,2.5c1,0.6,2.2,0.9,3.4,0.9c1.7,0,3.1-0.5,4.2-1.5
			c1.1-1,1.8-2.3,2-3.9H85v-2.6h10.7v2.5c-0.2,1.5-0.7,2.9-1.6,4.2c-0.9,1.3-2,2.3-3.4,3c-1.4,0.8-2.9,1.1-4.6,1.1
			c-1.8,0-3.5-0.4-5-1.3c-1.5-0.8-2.7-2-3.6-3.5s-1.3-3.2-1.3-5.1c0-1.9,0.4-3.6,1.3-5.1s2.1-2.7,3.6-3.5c1.5-0.9,3.2-1.3,5-1.3
			c2.1,0,3.9,0.5,5.5,1.5c1.6,1,2.8,2.5,3.5,4.3H91.3z M109,44l-4.5-7.8h-2.4V44h-3.2V24.5h6.7c1.5,0,2.8,0.3,3.8,0.8
			c1,0.5,1.8,1.2,2.3,2.1s0.8,1.9,0.8,3c0,1.3-0.4,2.4-1.1,3.4s-1.9,1.7-3.4,2.1l4.8,8.1H109z M102.1,33.6h3.5
			c1.2,0,2.1-0.3,2.7-0.9c0.6-0.6,0.9-1.4,0.9-2.4c0-1-0.3-1.8-0.9-2.4c-0.6-0.6-1.5-0.9-2.7-0.9h-3.5V33.6z M128.3,40h-8.2l-1.4,4
			h-3.3l7-19.5h3.7l7,19.5h-3.4L128.3,40z M127.4,37.4l-3.2-9l-3.2,9H127.4z M147.5,24.5v2.6h-8.2v5.7h6.4v2.6h-6.4V44h-3.2V24.5
			H147.5z M161.9,24.5v2.6h-8.2v5.7h6.4v2.6h-6.4V44h-3.2V24.5H161.9z M168.1,24.5V44h-3.2V24.5H168.1z M184.9,24.5v2.6h-5.2V44
			h-3.2V27.1h-5.2v-2.6H184.9z M191.3,24.5V44h-3.2V24.5H191.3z"/>
		<path class="st3" d="M82.9,76.6h-1.4l-4.1-6.2v6.2H76v-8.3h1.4l4.1,6.2v-6.2h1.4V76.6z M84.3,73.3c0-0.7,0.1-1.3,0.4-1.8
			c0.3-0.5,0.7-0.9,1.1-1.2c0.5-0.3,1-0.4,1.6-0.4c0.5,0,1,0.1,1.4,0.3s0.7,0.5,0.9,0.8v-1H91v6.6h-1.4v-1c-0.2,0.3-0.6,0.6-1,0.8
			c-0.4,0.2-0.8,0.3-1.4,0.3c-0.6,0-1.1-0.1-1.6-0.4c-0.5-0.3-0.8-0.7-1.1-1.2C84.4,74.5,84.3,73.9,84.3,73.3z M89.7,73.3
			c0-0.5-0.1-0.9-0.3-1.2s-0.4-0.6-0.8-0.8c-0.3-0.2-0.6-0.3-1-0.3c-0.3,0-0.7,0.1-1,0.3c-0.3,0.2-0.5,0.4-0.7,0.8s-0.3,0.7-0.3,1.2
			c0,0.5,0.1,0.9,0.3,1.2s0.4,0.6,0.7,0.8c0.3,0.2,0.6,0.3,1,0.3c0.4,0,0.7-0.1,1-0.3c0.3-0.2,0.6-0.4,0.8-0.8
			C89.6,74.1,89.7,73.7,89.7,73.3z M95.4,75.4l1.9-5.4h1.5l-2.5,6.6h-1.6L92.1,70h1.5L95.4,75.4z M100.4,69.1
			c-0.2,0-0.5-0.1-0.6-0.3c-0.2-0.2-0.2-0.4-0.2-0.6s0.1-0.5,0.2-0.6c0.2-0.2,0.4-0.3,0.6-0.3c0.2,0,0.4,0.1,0.6,0.3
			c0.2,0.2,0.3,0.4,0.3,0.6s-0.1,0.5-0.3,0.6S100.7,69.1,100.4,69.1z M101.1,70v6.6h-1.4V70H101.1z M105.6,69.9c0.5,0,1,0.1,1.4,0.3
			c0.4,0.2,0.7,0.5,0.9,0.8v-1h1.4v6.7c0,0.6-0.1,1.1-0.4,1.6c-0.2,0.5-0.6,0.8-1.1,1.1c-0.5,0.3-1.1,0.4-1.7,0.4
			c-0.9,0-1.6-0.2-2.2-0.6c-0.6-0.4-0.9-1-1-1.7h1.4c0.1,0.3,0.3,0.6,0.7,0.8s0.8,0.3,1.2,0.3c0.5,0,1-0.2,1.3-0.5
			c0.3-0.3,0.5-0.8,0.5-1.5v-1.1c-0.2,0.3-0.6,0.6-1,0.8c-0.4,0.2-0.8,0.3-1.3,0.3c-0.6,0-1.1-0.1-1.6-0.4c-0.5-0.3-0.8-0.7-1.1-1.2
			c-0.3-0.5-0.4-1.1-0.4-1.8c0-0.7,0.1-1.3,0.4-1.8c0.3-0.5,0.7-0.9,1.1-1.2C104.5,70,105,69.9,105.6,69.9z M107.9,73.3
			c0-0.5-0.1-0.9-0.3-1.2s-0.4-0.6-0.8-0.8c-0.3-0.2-0.6-0.3-1-0.3c-0.3,0-0.7,0.1-1,0.3c-0.3,0.2-0.5,0.4-0.7,0.8s-0.3,0.7-0.3,1.2
			c0,0.5,0.1,0.9,0.3,1.2s0.4,0.6,0.7,0.8c0.3,0.2,0.6,0.3,1,0.3c0.4,0,0.7-0.1,1-0.3c0.3-0.2,0.6-0.4,0.8-0.8
			C107.8,74.1,107.9,73.7,107.9,73.3z M110.6,73.3c0-0.7,0.1-1.3,0.4-1.8c0.3-0.5,0.7-0.9,1.1-1.2c0.5-0.3,1-0.4,1.6-0.4
			c0.5,0,1,0.1,1.4,0.3s0.7,0.5,0.9,0.8v-1h1.4v6.6H116v-1c-0.2,0.3-0.6,0.6-1,0.8c-0.4,0.2-0.8,0.3-1.4,0.3c-0.6,0-1.1-0.1-1.6-0.4
			c-0.5-0.3-0.8-0.7-1.1-1.2C110.7,74.5,110.6,73.9,110.6,73.3z M116,73.3c0-0.5-0.1-0.9-0.3-1.2s-0.4-0.6-0.8-0.8
			c-0.3-0.2-0.6-0.3-1-0.3c-0.3,0-0.7,0.1-1,0.3c-0.3,0.2-0.5,0.4-0.7,0.8s-0.3,0.7-0.3,1.2c0,0.5,0.1,0.9,0.3,1.2s0.4,0.6,0.7,0.8
			c0.3,0.2,0.6,0.3,1,0.3c0.4,0,0.7-0.1,1-0.3c0.3-0.2,0.6-0.4,0.8-0.8C115.9,74.1,116,73.7,116,73.3z M120.8,71.1v3.7
			c0,0.2,0.1,0.4,0.2,0.5c0.1,0.1,0.3,0.1,0.6,0.1h0.8v1.1h-1.1c-0.6,0-1.1-0.1-1.4-0.4c-0.3-0.3-0.5-0.8-0.5-1.4v-3.7h-0.8V70h0.8
			v-1.6h1.4V70h1.6v1.1H120.8z M124.4,69.1c-0.2,0-0.5-0.1-0.6-0.3c-0.2-0.2-0.2-0.4-0.2-0.6s0.1-0.5,0.2-0.6
			c0.2-0.2,0.4-0.3,0.6-0.3c0.2,0,0.4,0.1,0.6,0.3c0.2,0.2,0.3,0.4,0.3,0.6s-0.1,0.5-0.3,0.6S124.6,69.1,124.4,69.1z M125,70v6.6
			h-1.4V70H125z M130.2,69.9c0.5,0,1,0.1,1.4,0.3c0.4,0.2,0.7,0.5,1,1c0.2,0.4,0.4,0.9,0.4,1.5v3.9h-1.3v-3.7c0-0.6-0.1-1-0.4-1.4
			s-0.7-0.5-1.2-0.5s-0.9,0.2-1.2,0.5s-0.4,0.8-0.4,1.4v3.7h-1.4V70h1.4v0.8c0.2-0.3,0.5-0.5,0.8-0.6
			C129.4,69.9,129.8,69.9,130.2,69.9z M137.3,69.9c0.5,0,1,0.1,1.4,0.3c0.4,0.2,0.7,0.5,0.9,0.8v-1h1.4v6.7c0,0.6-0.1,1.1-0.4,1.6
			c-0.2,0.5-0.6,0.8-1.1,1.1c-0.5,0.3-1.1,0.4-1.7,0.4c-0.9,0-1.6-0.2-2.2-0.6c-0.6-0.4-0.9-1-1-1.7h1.4c0.1,0.3,0.3,0.6,0.7,0.8
			s0.8,0.3,1.2,0.3c0.5,0,1-0.2,1.3-0.5c0.3-0.3,0.5-0.8,0.5-1.5v-1.1c-0.2,0.3-0.6,0.6-1,0.8c-0.4,0.2-0.8,0.3-1.3,0.3
			c-0.6,0-1.1-0.1-1.6-0.4c-0.5-0.3-0.8-0.7-1.1-1.2c-0.3-0.5-0.4-1.1-0.4-1.8c0-0.7,0.1-1.3,0.4-1.8c0.3-0.5,0.7-0.9,1.1-1.2
			C136.2,70,136.7,69.9,137.3,69.9z M139.6,73.3c0-0.5-0.1-0.9-0.3-1.2s-0.4-0.6-0.8-0.8c-0.3-0.2-0.6-0.3-1-0.3
			c-0.3,0-0.7,0.1-1,0.3c-0.3,0.2-0.5,0.4-0.7,0.8s-0.3,0.7-0.3,1.2c0,0.5,0.1,0.9,0.3,1.2s0.4,0.6,0.7,0.8c0.3,0.2,0.6,0.3,1,0.3
			c0.4,0,0.7-0.1,1-0.3c0.3-0.2,0.6-0.4,0.8-0.8C139.5,74.1,139.6,73.7,139.6,73.3z M152.7,76.6h-1.4l-4.1-6.2v6.2h-1.4v-8.3h1.4
			l4.1,6.2v-6.2h1.4V76.6z M160.6,73.1c0,0.2,0,0.5,0,0.7h-5.1c0,0.5,0.2,0.9,0.6,1.3c0.4,0.3,0.8,0.5,1.3,0.5
			c0.7,0,1.2-0.3,1.5-0.9h1.5c-0.2,0.6-0.6,1.1-1.1,1.5c-0.5,0.4-1.2,0.6-1.9,0.6c-0.6,0-1.2-0.1-1.7-0.4c-0.5-0.3-0.9-0.7-1.2-1.2
			s-0.4-1.1-0.4-1.8c0-0.7,0.1-1.3,0.4-1.8c0.3-0.5,0.7-0.9,1.2-1.2s1.1-0.4,1.7-0.4c0.6,0,1.2,0.1,1.7,0.4c0.5,0.3,0.9,0.6,1.1,1.1
			C160.4,71.9,160.6,72.5,160.6,73.1z M159.2,72.7c0-0.5-0.2-0.9-0.5-1.2c-0.4-0.3-0.8-0.5-1.3-0.5c-0.5,0-0.9,0.2-1.2,0.5
			c-0.3,0.3-0.5,0.7-0.6,1.2H159.2z M170.8,70l-2,6.6h-1.5l-1.3-4.9l-1.3,4.9h-1.5l-2.1-6.6h1.4l1.4,5.3l1.4-5.3h1.4l1.4,5.3
			l1.4-5.3H170.8z M181.1,68.3l-2.8,5.3v3H177v-3l-2.8-5.3h1.5l1.9,4.1l1.9-4.1H181.1z M185.1,76.7c-0.6,0-1.2-0.1-1.7-0.4
			c-0.5-0.3-0.9-0.7-1.2-1.2c-0.3-0.5-0.4-1.1-0.4-1.8s0.1-1.3,0.4-1.8c0.3-0.5,0.7-0.9,1.2-1.2s1.1-0.4,1.7-0.4
			c0.6,0,1.2,0.1,1.7,0.4c0.5,0.3,0.9,0.7,1.2,1.2c0.3,0.5,0.4,1.1,0.4,1.8s-0.2,1.3-0.5,1.8c-0.3,0.5-0.7,0.9-1.2,1.2
			C186.3,76.6,185.7,76.7,185.1,76.7z M185.1,75.5c0.3,0,0.7-0.1,1-0.3s0.6-0.4,0.8-0.8c0.2-0.3,0.3-0.8,0.3-1.2
			c0-0.5-0.1-0.9-0.3-1.2c-0.2-0.3-0.4-0.6-0.7-0.8c-0.3-0.2-0.6-0.3-1-0.3c-0.3,0-0.7,0.1-1,0.3c-0.3,0.2-0.5,0.4-0.7,0.8
			c-0.2,0.3-0.3,0.7-0.3,1.2c0,0.7,0.2,1.2,0.5,1.6S184.5,75.5,185.1,75.5z M191.2,70.9c0.2-0.3,0.5-0.6,0.8-0.8s0.7-0.3,1.2-0.3
			v1.4h-0.4c-0.5,0-0.9,0.1-1.2,0.4c-0.3,0.3-0.4,0.7-0.4,1.4v3.5h-1.4V70h1.4V70.9z M197.1,73.3l3,3.3h-1.9l-2.4-2.8v2.8h-1.4v-8.9
			h1.4v5.2l2.4-2.9h1.9L197.1,73.3z"/>
		<path class="st2" d="M791.5,3.6h586.9V86H791.5V3.6z"/>
		<path class="st3" d="M811.5,22.9c1.7,0,3.1,0.3,4.3,0.9c1.2,0.6,2.2,1.5,2.8,2.7s1,2.5,1,4.1c0,1.6-0.3,2.9-1,4.1
			c-0.7,1.1-1.6,2-2.8,2.6s-2.7,0.9-4.3,0.9h-4.8V22.9H811.5z M811.5,36.6c2,0,3.5-0.5,4.5-1.6s1.6-2.5,1.6-4.4
			c0-1.9-0.5-3.4-1.6-4.5c-1-1.1-2.5-1.6-4.5-1.6h-2.8v12H811.5z M827.5,38.4c-1.1,0-2.1-0.2-3.1-0.8c-0.9-0.5-1.6-1.2-2.2-2.2
			c-0.5-1-0.8-2.1-0.8-3.3c0-1.2,0.3-2.3,0.8-3.3c0.5-1,1.3-1.7,2.2-2.2s2-0.8,3.1-0.8s2.2,0.2,3.1,0.8c0.9,0.5,1.7,1.2,2.2,2.2
			s0.8,2,0.8,3.3s-0.3,2.4-0.8,3.3c-0.5,0.9-1.3,1.7-2.2,2.2C829.7,38.1,828.7,38.4,827.5,38.4z M827.5,36.6c0.7,0,1.4-0.2,2-0.5
			c0.6-0.3,1.2-0.9,1.5-1.5s0.6-1.5,0.6-2.5s-0.2-1.8-0.6-2.5c-0.4-0.7-0.9-1.2-1.5-1.5c-0.6-0.3-1.3-0.5-2-0.5
			c-0.7,0-1.4,0.2-2,0.5s-1.1,0.8-1.5,1.5s-0.5,1.5-0.5,2.5c0,1,0.2,1.8,0.5,2.5s0.8,1.2,1.4,1.5S826.8,36.6,827.5,36.6z
			 M835.6,32.1c0-1.2,0.3-2.3,0.8-3.3c0.5-0.9,1.2-1.7,2.1-2.2c0.9-0.5,1.9-0.8,3-0.8c1.5,0,2.7,0.4,3.7,1.1c1,0.7,1.6,1.7,1.9,3
			h-2.2c-0.2-0.7-0.6-1.3-1.2-1.7s-1.3-0.6-2.2-0.6c-1.1,0-2.1,0.4-2.8,1.2s-1.1,1.9-1.1,3.3c0,1.5,0.4,2.6,1.1,3.4
			c0.7,0.8,1.6,1.2,2.8,1.2c0.9,0,1.6-0.2,2.2-0.6c0.6-0.4,1-1,1.2-1.8h2.2c-0.3,1.2-1,2.2-1.9,3c-1,0.7-2.2,1.1-3.6,1.1
			c-1.1,0-2.2-0.2-3-0.8c-0.9-0.5-1.6-1.2-2.1-2.2S835.6,33.4,835.6,32.1z M860.4,26.1v12h-2v-1.8c-0.4,0.6-0.9,1.1-1.6,1.5
			c-0.7,0.3-1.4,0.5-2.2,0.5c-0.9,0-1.8-0.2-2.5-0.6s-1.3-1-1.8-1.8c-0.4-0.8-0.6-1.7-0.6-2.8v-7.1h2v6.8c0,1.2,0.3,2.1,0.9,2.7
			c0.6,0.6,1.4,0.9,2.5,0.9c1.1,0,1.9-0.3,2.5-1c0.6-0.7,0.9-1.6,0.9-2.9v-6.6H860.4z M878.2,25.9c0.9,0,1.8,0.2,2.5,0.6
			c0.7,0.4,1.3,1,1.7,1.7c0.4,0.8,0.7,1.7,0.7,2.8v7.1h-2v-6.8c0-1.2-0.3-2.1-0.9-2.7c-0.6-0.6-1.4-1-2.4-1c-1,0-1.9,0.3-2.5,1
			c-0.6,0.7-0.9,1.6-0.9,2.9v6.6h-2v-6.8c0-1.2-0.3-2.1-0.9-2.7c-0.6-0.6-1.4-1-2.4-1c-1,0-1.9,0.3-2.5,1c-0.6,0.7-0.9,1.6-0.9,2.9
			v6.6h-2v-12h2v1.7c0.4-0.6,0.9-1.1,1.6-1.4c0.7-0.3,1.4-0.5,2.2-0.5c1,0,1.9,0.2,2.7,0.7c0.8,0.5,1.4,1.1,1.7,2
			c0.3-0.8,0.9-1.5,1.7-2C876.4,26.2,877.3,25.9,878.2,25.9z M897.4,31.7c0,0.4,0,0.8-0.1,1.2h-9.6c0.1,1.2,0.5,2.1,1.2,2.8
			c0.8,0.7,1.7,1,2.7,1c0.9,0,1.6-0.2,2.2-0.6c0.6-0.4,1-1,1.2-1.6h2.2c-0.3,1.2-1,2.1-1.9,2.8s-2.2,1.1-3.6,1.1
			c-1.2,0-2.2-0.2-3.1-0.8c-0.9-0.5-1.6-1.2-2.1-2.2c-0.5-1-0.8-2.1-0.8-3.3s0.2-2.3,0.8-3.3s1.2-1.7,2.1-2.2c0.9-0.5,2-0.8,3.1-0.8
			c1.1,0,2.1,0.2,3,0.8c0.9,0.5,1.5,1.2,2,2C897.1,29.6,897.4,30.6,897.4,31.7z M895.3,31.3c0-0.8-0.2-1.4-0.5-1.9
			c-0.3-0.6-0.8-1-1.4-1.3s-1.2-0.4-1.9-0.4c-1,0-1.9,0.3-2.6,1c-0.7,0.6-1.1,1.5-1.2,2.7H895.3z M905.9,25.9c1.5,0,2.6,0.4,3.5,1.3
			c0.9,0.9,1.4,2.1,1.4,3.8v7.1h-2v-6.8c0-1.2-0.3-2.1-0.9-2.7c-0.6-0.6-1.4-1-2.4-1c-1.1,0-1.9,0.3-2.5,1c-0.6,0.7-0.9,1.6-0.9,2.9
			v6.7h-2v-12h2v1.7c0.4-0.6,0.9-1.1,1.6-1.4C904.3,26.1,905.1,25.9,905.9,25.9z M916.5,27.8v7.1c0,0.6,0.1,1,0.4,1.3
			c0.3,0.2,0.7,0.4,1.3,0.4h1.5v1.7h-1.8c-1.1,0-2-0.3-2.5-0.8c-0.5-0.5-0.8-1.4-0.8-2.5v-7.1H913v-1.6h1.6v-3h2v3h3.1v1.6H916.5z
			 M933.1,31.7c0,0.4,0,0.8-0.1,1.2h-9.6c0.1,1.2,0.5,2.1,1.2,2.8c0.8,0.7,1.7,1,2.7,1c0.9,0,1.6-0.2,2.2-0.6c0.6-0.4,1-1,1.2-1.6
			h2.2c-0.3,1.2-1,2.1-1.9,2.8s-2.2,1.1-3.6,1.1c-1.2,0-2.2-0.2-3.1-0.8c-0.9-0.5-1.6-1.2-2.1-2.2c-0.5-1-0.8-2.1-0.8-3.3
			s0.2-2.3,0.8-3.3s1.2-1.7,2.1-2.2c0.9-0.5,2-0.8,3.1-0.8c1.1,0,2.1,0.2,3,0.8c0.9,0.5,1.5,1.2,2,2
			C932.8,29.6,933.1,30.6,933.1,31.7z M931,31.3c0-0.8-0.2-1.4-0.5-1.9c-0.3-0.6-0.8-1-1.4-1.3s-1.2-0.4-1.9-0.4c-1,0-1.9,0.3-2.6,1
			c-0.7,0.6-1.1,1.5-1.2,2.7H931z M935,32.1c0-1.2,0.2-2.3,0.8-3.2c0.5-0.9,1.2-1.7,2.1-2.2c0.9-0.5,1.9-0.8,2.9-0.8
			c0.9,0,1.8,0.2,2.6,0.7c0.8,0.4,1.4,1,1.9,1.7v-6.4h2v16.3h-2v-2.3c-0.4,0.7-1,1.3-1.8,1.8c-0.8,0.5-1.7,0.7-2.7,0.7
			c-1.1,0-2-0.3-2.9-0.8c-0.9-0.5-1.6-1.3-2.1-2.2S935,33.3,935,32.1z M945.2,32.1c0-0.9-0.2-1.7-0.6-2.4c-0.4-0.7-0.9-1.2-1.5-1.5
			s-1.3-0.5-2.1-0.5s-1.4,0.2-2.1,0.5c-0.6,0.3-1.1,0.9-1.5,1.5s-0.5,1.5-0.5,2.4c0,0.9,0.2,1.7,0.5,2.4c0.4,0.7,0.8,1.2,1.5,1.5
			c0.6,0.4,1.3,0.5,2.1,0.5s1.4-0.2,2.1-0.5s1.1-0.9,1.5-1.5C945,33.9,945.2,33.1,945.2,32.1z M958.9,27.8v7.1c0,0.6,0.1,1,0.4,1.3
			c0.2,0.2,0.7,0.4,1.3,0.4h1.5v1.7h-1.8c-1.1,0-2-0.3-2.5-0.8c-0.5-0.5-0.8-1.4-0.8-2.5v-7.1h-1.6v-1.6h1.6v-3h2v3h3.1v1.6H958.9z
			 M970.4,25.9c0.9,0,1.7,0.2,2.5,0.6c0.7,0.4,1.3,1,1.7,1.7s0.6,1.7,0.6,2.8v7.1h-2v-6.8c0-1.2-0.3-2.1-0.9-2.7
			c-0.6-0.6-1.4-1-2.4-1c-1.1,0-1.9,0.3-2.5,1c-0.6,0.7-0.9,1.6-0.9,2.9v6.7h-2V21.9h2v5.9c0.4-0.6,0.9-1.1,1.6-1.4
			C968.8,26.1,969.6,25.9,970.4,25.9z M989.5,31.7c0,0.4,0,0.8-0.1,1.2h-9.6c0.1,1.2,0.5,2.1,1.2,2.8c0.8,0.7,1.7,1,2.7,1
			c0.9,0,1.6-0.2,2.2-0.6c0.6-0.4,1-1,1.2-1.6h2.2c-0.3,1.2-1,2.1-1.9,2.8s-2.2,1.1-3.6,1.1c-1.2,0-2.2-0.2-3.1-0.8
			c-0.9-0.5-1.6-1.2-2.1-2.2c-0.5-1-0.8-2.1-0.8-3.3s0.2-2.3,0.8-3.3s1.2-1.7,2.1-2.2c0.9-0.5,2-0.8,3.1-0.8c1.1,0,2.1,0.2,3,0.8
			c0.9,0.5,1.5,1.2,2,2C989.3,29.6,989.5,30.6,989.5,31.7z M987.4,31.3c0-0.8-0.2-1.4-0.5-1.9c-0.3-0.6-0.8-1-1.4-1.3
			s-1.2-0.4-1.9-0.4c-1,0-1.9,0.3-2.6,1c-0.7,0.6-1.1,1.5-1.2,2.7H987.4z M997.3,32.1c0-1.2,0.2-2.3,0.8-3.3
			c0.5-0.9,1.2-1.7,2.1-2.2c0.9-0.5,1.9-0.8,3-0.8c1.5,0,2.7,0.4,3.7,1.1c1,0.7,1.6,1.7,1.9,3h-2.2c-0.2-0.7-0.6-1.3-1.2-1.7
			s-1.3-0.6-2.2-0.6c-1.1,0-2.1,0.4-2.8,1.2s-1.1,1.9-1.1,3.3c0,1.5,0.4,2.6,1.1,3.4c0.7,0.8,1.6,1.2,2.8,1.2c0.9,0,1.6-0.2,2.2-0.6
			c0.6-0.4,1-1,1.2-1.8h2.2c-0.3,1.2-1,2.2-1.9,3c-1,0.7-2.2,1.1-3.6,1.1c-1.1,0-2.2-0.2-3-0.8c-0.9-0.5-1.6-1.2-2.1-2.2
			S997.3,33.4,997.3,32.1z M1016.6,38.4c-1.1,0-2.1-0.2-3.1-0.8c-0.9-0.5-1.6-1.2-2.2-2.2c-0.5-1-0.8-2.1-0.8-3.3
			c0-1.2,0.3-2.3,0.8-3.3c0.5-1,1.3-1.7,2.2-2.2s2-0.8,3.1-0.8s2.2,0.2,3.1,0.8c0.9,0.5,1.7,1.2,2.2,2.2s0.8,2,0.8,3.3
			s-0.3,2.4-0.8,3.3c-0.5,0.9-1.3,1.7-2.2,2.2C1018.8,38.1,1017.8,38.4,1016.6,38.4z M1016.6,36.6c0.7,0,1.4-0.2,2-0.5
			c0.6-0.3,1.2-0.9,1.5-1.5s0.6-1.5,0.6-2.5s-0.2-1.8-0.6-2.5c-0.4-0.7-0.9-1.2-1.5-1.5c-0.6-0.3-1.3-0.5-2-0.5
			c-0.7,0-1.4,0.2-2,0.5s-1.1,0.8-1.5,1.5s-0.5,1.5-0.5,2.5c0,1,0.2,1.8,0.5,2.5s0.8,1.2,1.4,1.5S1015.9,36.6,1016.6,36.6z
			 M1030.7,38.4c-1.1,0-2.1-0.2-3.1-0.8c-0.9-0.5-1.6-1.2-2.2-2.2c-0.5-1-0.8-2.1-0.8-3.3c0-1.2,0.3-2.3,0.8-3.3
			c0.5-1,1.3-1.7,2.2-2.2s2-0.8,3.1-0.8s2.2,0.2,3.1,0.8c0.9,0.5,1.7,1.2,2.2,2.2s0.8,2,0.8,3.3s-0.3,2.4-0.8,3.3
			c-0.5,0.9-1.3,1.7-2.2,2.2C1032.9,38.1,1031.8,38.4,1030.7,38.4z M1030.7,36.6c0.7,0,1.4-0.2,2-0.5c0.6-0.3,1.2-0.9,1.5-1.5
			s0.6-1.5,0.6-2.5s-0.2-1.8-0.6-2.5c-0.4-0.7-0.9-1.2-1.5-1.5c-0.6-0.3-1.3-0.5-2-0.5c-0.7,0-1.4,0.2-2,0.5s-1.1,0.8-1.5,1.5
			s-0.5,1.5-0.5,2.5c0,1,0.2,1.8,0.5,2.5s0.8,1.2,1.4,1.5S1030,36.6,1030.7,36.6z M1041.5,28.1c0.3-0.7,0.8-1.2,1.5-1.6
			s1.5-0.6,2.4-0.6V28h-0.5c-2.2,0-3.4,1.2-3.4,3.6v6.6h-2v-12h2V28.1z M1047,32.1c0-1.2,0.2-2.3,0.8-3.2c0.5-0.9,1.2-1.7,2.1-2.2
			c0.9-0.5,1.9-0.8,2.9-0.8c0.9,0,1.8,0.2,2.6,0.7c0.8,0.4,1.4,1,1.9,1.7v-6.4h2v16.3h-2v-2.3c-0.4,0.7-1,1.3-1.8,1.8
			c-0.8,0.5-1.7,0.7-2.7,0.7c-1.1,0-2-0.3-2.9-0.8c-0.9-0.5-1.6-1.3-2.1-2.2S1047,33.3,1047,32.1z M1057.2,32.1
			c0-0.9-0.2-1.7-0.6-2.4c-0.4-0.7-0.9-1.2-1.5-1.5s-1.3-0.5-2.1-0.5s-1.4,0.2-2.1,0.5c-0.6,0.3-1.1,0.9-1.5,1.5s-0.5,1.5-0.5,2.4
			c0,0.9,0.2,1.7,0.5,2.4c0.4,0.7,0.8,1.2,1.5,1.5c0.6,0.4,1.3,0.5,2.1,0.5s1.4-0.2,2.1-0.5s1.1-0.9,1.5-1.5
			C1057,33.9,1057.2,33.1,1057.2,32.1z M1063.6,24.2c-0.4,0-0.7-0.1-1-0.4c-0.3-0.3-0.4-0.6-0.4-1c0-0.4,0.1-0.7,0.4-1
			s0.6-0.4,1-0.4s0.7,0.1,0.9,0.4c0.3,0.3,0.4,0.6,0.4,1c0,0.4-0.1,0.7-0.4,1C1064.3,24.1,1064,24.2,1063.6,24.2z M1064.6,26.1v12
			h-2v-12H1064.6z M1073.9,25.9c1.5,0,2.6,0.4,3.5,1.3c0.9,0.9,1.4,2.1,1.4,3.8v7.1h-2v-6.8c0-1.2-0.3-2.1-0.9-2.7
			c-0.6-0.6-1.4-1-2.4-1c-1.1,0-1.9,0.3-2.5,1c-0.6,0.7-0.9,1.6-0.9,2.9v6.7h-2v-12h2v1.7c0.4-0.6,0.9-1.1,1.6-1.4
			C1072.3,26.1,1073,25.9,1073.9,25.9z M1081.3,32.1c0-1.2,0.2-2.3,0.8-3.2c0.5-0.9,1.2-1.7,2.1-2.2c0.9-0.5,1.8-0.8,2.9-0.8
			s2,0.2,2.7,0.7c0.8,0.5,1.4,1,1.8,1.7v-2.2h2v12h-2v-2.2c-0.4,0.7-1,1.3-1.8,1.8c-0.8,0.5-1.7,0.7-2.7,0.7c-1.1,0-2-0.3-2.9-0.8
			c-0.9-0.5-1.5-1.3-2-2.2S1081.3,33.3,1081.3,32.1z M1091.5,32.1c0-0.9-0.2-1.7-0.6-2.4c-0.4-0.7-0.9-1.2-1.5-1.5s-1.3-0.5-2.1-0.5
			s-1.4,0.2-2.1,0.5c-0.6,0.3-1.1,0.9-1.5,1.5s-0.5,1.5-0.5,2.4c0,0.9,0.2,1.7,0.5,2.4c0.4,0.7,0.8,1.2,1.5,1.5
			c0.6,0.4,1.3,0.5,2.1,0.5s1.4-0.2,2.1-0.5s1.1-0.9,1.5-1.5C1091.3,33.9,1091.5,33.1,1091.5,32.1z M1099.3,27.8v7.1
			c0,0.6,0.1,1,0.4,1.3c0.2,0.2,0.7,0.4,1.3,0.4h1.5v1.7h-1.8c-1.1,0-2-0.3-2.5-0.8c-0.5-0.5-0.8-1.4-0.8-2.5v-7.1h-1.6v-1.6h1.6v-3
			h2v3h3.1v1.6H1099.3z M1115.9,31.7c0,0.4,0,0.8-0.1,1.2h-9.6c0.1,1.2,0.5,2.1,1.2,2.8c0.8,0.7,1.7,1,2.7,1c0.9,0,1.6-0.2,2.2-0.6
			c0.6-0.4,1-1,1.2-1.6h2.2c-0.3,1.2-1,2.1-1.9,2.8s-2.2,1.1-3.6,1.1c-1.2,0-2.2-0.2-3.1-0.8c-0.9-0.5-1.6-1.2-2.1-2.2
			c-0.5-1-0.8-2.1-0.8-3.3s0.2-2.3,0.8-3.3s1.2-1.7,2.1-2.2c0.9-0.5,2-0.8,3.1-0.8c1.1,0,2.1,0.2,3,0.8c0.9,0.5,1.5,1.2,2,2
			C1115.7,29.6,1115.9,30.6,1115.9,31.7z M1113.8,31.3c0-0.8-0.2-1.4-0.5-1.9c-0.3-0.6-0.8-1-1.4-1.3s-1.2-0.4-1.9-0.4
			c-1,0-1.9,0.3-2.6,1c-0.7,0.6-1.1,1.5-1.2,2.7H1113.8z M1122.8,38.4c-0.9,0-1.8-0.2-2.5-0.5s-1.3-0.8-1.7-1.3s-0.7-1.2-0.7-1.9
			h2.1c0.1,0.6,0.3,1.1,0.8,1.5c0.5,0.4,1.2,0.6,2,0.6c0.8,0,1.4-0.2,1.8-0.5c0.4-0.3,0.7-0.8,0.7-1.3c0-0.5-0.2-0.9-0.7-1.2
			s-1.2-0.5-2.2-0.8c-0.9-0.2-1.6-0.5-2.2-0.7c-0.6-0.2-1-0.6-1.5-1.1c-0.4-0.5-0.6-1.1-0.6-1.9c0-0.6,0.2-1.2,0.5-1.7
			c0.4-0.5,0.9-0.9,1.6-1.2c0.7-0.3,1.5-0.4,2.3-0.4c1.3,0,2.4,0.3,3.2,1c0.8,0.7,1.3,1.6,1.3,2.8h-2c0-0.6-0.3-1.1-0.8-1.5
			c-0.5-0.4-1.1-0.6-1.9-0.6c-0.7,0-1.3,0.2-1.7,0.5c-0.4,0.3-0.6,0.7-0.6,1.2c0,0.4,0.1,0.7,0.4,1c0.3,0.2,0.6,0.5,1,0.6
			c0.4,0.2,0.9,0.3,1.6,0.5c0.9,0.2,1.6,0.5,2.1,0.7c0.5,0.2,1,0.6,1.4,1s0.6,1,0.6,1.8c0,0.7-0.2,1.2-0.6,1.8
			c-0.4,0.5-0.9,0.9-1.5,1.2C1124.4,38.2,1123.7,38.4,1122.8,38.4z M1136.9,24.2c-0.4,0-0.7-0.1-1-0.4c-0.3-0.3-0.4-0.6-0.4-1
			c0-0.4,0.1-0.7,0.4-1s0.6-0.4,1-0.4s0.7,0.1,0.9,0.4c0.3,0.3,0.4,0.6,0.4,1c0,0.4-0.1,0.7-0.4,1
			C1137.6,24.1,1137.3,24.2,1136.9,24.2z M1137.9,26.1v12h-2v-12H1137.9z M1147.2,25.9c1.5,0,2.6,0.4,3.5,1.3
			c0.9,0.9,1.4,2.1,1.4,3.8v7.1h-2v-6.8c0-1.2-0.3-2.1-0.9-2.7c-0.6-0.6-1.4-1-2.4-1c-1.1,0-1.9,0.3-2.5,1c-0.6,0.7-0.9,1.6-0.9,2.9
			v6.7h-2v-12h2v1.7c0.4-0.6,0.9-1.1,1.6-1.4C1145.6,26.1,1146.3,25.9,1147.2,25.9z M1154.6,32.1c0-1.2,0.2-2.3,0.8-3.3
			c0.5-0.9,1.2-1.7,2.1-2.2c0.9-0.5,1.9-0.8,3-0.8c1.5,0,2.7,0.4,3.7,1.1c1,0.7,1.6,1.7,1.9,3h-2.2c-0.2-0.7-0.6-1.3-1.2-1.7
			s-1.3-0.6-2.2-0.6c-1.1,0-2.1,0.4-2.8,1.2s-1.1,1.9-1.1,3.3c0,1.5,0.4,2.6,1.1,3.4c0.7,0.8,1.6,1.2,2.8,1.2c0.9,0,1.6-0.2,2.2-0.6
			c0.6-0.4,1-1,1.2-1.8h2.2c-0.3,1.2-1,2.2-1.9,3c-1,0.7-2.2,1.1-3.6,1.1c-1.1,0-2.2-0.2-3-0.8c-0.9-0.5-1.6-1.2-2.1-2.2
			S1154.6,33.4,1154.6,32.1z M1170.7,21.9v16.3h-2V21.9H1170.7z M1184.8,26.1v12h-2v-1.8c-0.4,0.6-0.9,1.1-1.6,1.5
			c-0.7,0.3-1.4,0.5-2.2,0.5c-0.9,0-1.8-0.2-2.5-0.6s-1.3-1-1.8-1.8c-0.4-0.8-0.6-1.7-0.6-2.8v-7.1h2v6.8c0,1.2,0.3,2.1,0.9,2.7
			c0.6,0.6,1.4,0.9,2.5,0.9c1.1,0,1.9-0.3,2.5-1c0.6-0.7,0.9-1.6,0.9-2.9v-6.6H1184.8z M1187.4,32.1c0-1.2,0.2-2.3,0.8-3.2
			c0.5-0.9,1.2-1.7,2.1-2.2c0.9-0.5,1.9-0.8,2.9-0.8c0.9,0,1.8,0.2,2.6,0.7c0.8,0.4,1.4,1,1.9,1.7v-6.4h2v16.3h-2v-2.3
			c-0.4,0.7-1,1.3-1.8,1.8c-0.8,0.5-1.7,0.7-2.7,0.7c-1.1,0-2-0.3-2.9-0.8c-0.9-0.5-1.6-1.3-2.1-2.2S1187.4,33.3,1187.4,32.1z
			 M1197.7,32.1c0-0.9-0.2-1.7-0.6-2.4c-0.4-0.7-0.9-1.2-1.5-1.5s-1.3-0.5-2.1-0.5s-1.4,0.2-2.1,0.5c-0.6,0.3-1.1,0.9-1.5,1.5
			s-0.5,1.5-0.5,2.4c0,0.9,0.2,1.7,0.5,2.4c0.4,0.7,0.8,1.2,1.5,1.5c0.6,0.4,1.3,0.5,2.1,0.5s1.4-0.2,2.1-0.5s1.1-0.9,1.5-1.5
			C1197.5,33.9,1197.7,33.1,1197.7,32.1z M1214,31.7c0,0.4,0,0.8-0.1,1.2h-9.6c0.1,1.2,0.5,2.1,1.2,2.8c0.8,0.7,1.7,1,2.7,1
			c0.9,0,1.6-0.2,2.2-0.6c0.6-0.4,1-1,1.2-1.6h2.2c-0.3,1.2-1,2.1-1.9,2.8s-2.2,1.1-3.6,1.1c-1.2,0-2.2-0.2-3.1-0.8
			c-0.9-0.5-1.6-1.2-2.1-2.2c-0.5-1-0.8-2.1-0.8-3.3s0.2-2.3,0.8-3.3s1.2-1.7,2.1-2.2c0.9-0.5,2-0.8,3.1-0.8c1.1,0,2.1,0.2,3,0.8
			c0.9,0.5,1.5,1.2,2,2C1213.8,29.6,1214,30.6,1214,31.7z M1212,31.3c0-0.8-0.2-1.4-0.5-1.9c-0.3-0.6-0.8-1-1.4-1.3
			s-1.2-0.4-1.9-0.4c-1,0-1.9,0.3-2.6,1c-0.7,0.6-1.1,1.5-1.2,2.7H1212z M1215.9,32.1c0-1.2,0.2-2.3,0.8-3.2
			c0.5-0.9,1.2-1.7,2.1-2.2c0.9-0.5,1.9-0.8,2.9-0.8c0.9,0,1.8,0.2,2.6,0.7c0.8,0.4,1.4,1,1.9,1.7v-6.4h2v16.3h-2v-2.3
			c-0.4,0.7-1,1.3-1.8,1.8c-0.8,0.5-1.7,0.7-2.7,0.7c-1.1,0-2-0.3-2.9-0.8c-0.9-0.5-1.6-1.3-2.1-2.2S1215.9,33.3,1215.9,32.1z
			 M1226.1,32.1c0-0.9-0.2-1.7-0.6-2.4c-0.4-0.7-0.9-1.2-1.5-1.5s-1.3-0.5-2.1-0.5s-1.4,0.2-2.1,0.5c-0.6,0.3-1.1,0.9-1.5,1.5
			s-0.5,1.5-0.5,2.4c0,0.9,0.2,1.7,0.5,2.4c0.4,0.7,0.8,1.2,1.5,1.5c0.6,0.4,1.3,0.5,2.1,0.5s1.4-0.2,2.1-0.5s1.1-0.9,1.5-1.5
			C1226,33.9,1226.1,33.1,1226.1,32.1z M1242.7,38.4c-1.1,0-2.1-0.2-3.1-0.8c-0.9-0.5-1.6-1.2-2.2-2.2c-0.5-1-0.8-2.1-0.8-3.3
			c0-1.2,0.3-2.3,0.8-3.3c0.5-1,1.3-1.7,2.2-2.2s2-0.8,3.1-0.8s2.2,0.2,3.1,0.8c0.9,0.5,1.7,1.2,2.2,2.2s0.8,2,0.8,3.3
			s-0.3,2.4-0.8,3.3c-0.5,0.9-1.3,1.7-2.2,2.2C1244.9,38.1,1243.8,38.4,1242.7,38.4z M1242.7,36.6c0.7,0,1.4-0.2,2-0.5
			c0.6-0.3,1.2-0.9,1.5-1.5s0.6-1.5,0.6-2.5s-0.2-1.8-0.6-2.5c-0.4-0.7-0.9-1.2-1.5-1.5c-0.6-0.3-1.3-0.5-2-0.5
			c-0.7,0-1.4,0.2-2,0.5s-1.1,0.8-1.5,1.5s-0.5,1.5-0.5,2.5c0,1,0.2,1.8,0.5,2.5s0.8,1.2,1.4,1.5S1241.9,36.6,1242.7,36.6z
			 M1257.4,25.9c1.5,0,2.6,0.4,3.5,1.3c0.9,0.9,1.4,2.1,1.4,3.8v7.1h-2v-6.8c0-1.2-0.3-2.1-0.9-2.7c-0.6-0.6-1.4-1-2.4-1
			c-1.1,0-1.9,0.3-2.5,1c-0.6,0.7-0.9,1.6-0.9,2.9v6.7h-2v-12h2v1.7c0.4-0.6,0.9-1.1,1.6-1.4C1255.8,26.1,1256.5,25.9,1257.4,25.9z"
			/>
		<path class="st3" d="M813.7,64.8c-1.4,0-2.7-0.3-3.9-1s-2.1-1.6-2.8-2.8c-0.7-1.2-1-2.5-1-4c0-1.5,0.3-2.8,1-4
			c0.7-1.2,1.6-2.1,2.8-2.8c1.2-0.7,2.5-1,3.9-1c1.4,0,2.7,0.3,3.9,1c1.2,0.7,2.1,1.6,2.8,2.8s1,2.5,1,4.1c0,1.5-0.3,2.8-1,4
			s-1.6,2.1-2.8,2.8S815.1,64.8,813.7,64.8z M813.7,63c1.1,0,2-0.2,2.9-0.7c0.9-0.5,1.5-1.2,2-2.1c0.5-0.9,0.8-2,0.8-3.2
			c0-1.2-0.2-2.3-0.8-3.2c-0.5-0.9-1.2-1.6-2-2.1c-0.8-0.5-1.8-0.8-2.9-0.8c-1.1,0-2.1,0.2-2.9,0.8c-0.8,0.5-1.5,1.2-2,2.1
			c-0.5,0.9-0.7,2-0.7,3.2c0,1.2,0.2,2.3,0.7,3.2c0.5,0.9,1.2,1.6,2,2.1C811.6,62.8,812.6,63,813.7,63z M826,54.8
			c0.4-0.7,1-1.3,1.8-1.7c0.8-0.5,1.7-0.7,2.7-0.7c1.1,0,2,0.3,2.9,0.8c0.9,0.5,1.6,1.2,2.1,2.2c0.5,0.9,0.8,2,0.8,3.2
			c0,1.2-0.3,2.3-0.8,3.3s-1.2,1.7-2.1,2.2c-0.9,0.5-1.8,0.8-2.9,0.8c-1,0-1.9-0.2-2.7-0.7c-0.8-0.5-1.4-1-1.8-1.7v7.9h-2V52.5h2
			V54.8z M834.2,58.5c0-0.9-0.2-1.7-0.6-2.4c-0.4-0.7-0.9-1.2-1.5-1.5c-0.6-0.4-1.3-0.5-2.1-0.5c-0.7,0-1.4,0.2-2,0.5
			s-1.1,0.9-1.5,1.6c-0.4,0.7-0.5,1.5-0.5,2.3c0,0.9,0.2,1.7,0.5,2.4c0.4,0.7,0.9,1.2,1.5,1.5s1.3,0.5,2,0.5c0.8,0,1.4-0.2,2.1-0.5
			s1.1-0.9,1.5-1.5C834,60.3,834.2,59.4,834.2,58.5z M849.8,58.1c0,0.4,0,0.8-0.1,1.2h-9.6c0.1,1.2,0.5,2.1,1.2,2.8
			c0.8,0.7,1.7,1,2.7,1c0.9,0,1.6-0.2,2.2-0.6c0.6-0.4,1-1,1.2-1.6h2.2c-0.3,1.2-1,2.1-1.9,2.8s-2.2,1.1-3.6,1.1
			c-1.2,0-2.2-0.2-3.1-0.8c-0.9-0.5-1.6-1.2-2.1-2.2c-0.5-1-0.8-2.1-0.8-3.3s0.2-2.3,0.8-3.3s1.2-1.7,2.1-2.2c0.9-0.5,2-0.8,3.1-0.8
			c1.1,0,2.1,0.2,3,0.8c0.9,0.5,1.5,1.2,2,2C849.6,56,849.8,57,849.8,58.1z M847.8,57.7c0-0.8-0.2-1.4-0.5-1.9
			c-0.3-0.6-0.8-1-1.4-1.3S844.7,54,844,54c-1,0-1.9,0.3-2.6,1c-0.7,0.6-1.1,1.5-1.2,2.7H847.8z M858.4,52.3c1.5,0,2.6,0.4,3.5,1.3
			c0.9,0.9,1.4,2.1,1.4,3.8v7.1h-2v-6.8c0-1.2-0.3-2.1-0.9-2.7c-0.6-0.6-1.4-1-2.4-1c-1.1,0-1.9,0.3-2.5,1c-0.6,0.7-0.9,1.6-0.9,2.9
			v6.7h-2v-12h2v1.7c0.4-0.6,0.9-1.1,1.6-1.4C856.8,52.5,857.5,52.3,858.4,52.3z M877.2,49.3c1.7,0,3.1,0.3,4.3,0.9s2.2,1.5,2.8,2.7
			s1,2.5,1,4.1c0,1.6-0.3,2.9-1,4.1c-0.7,1.1-1.6,2-2.8,2.6s-2.7,0.9-4.3,0.9h-4.8V49.3H877.2z M877.2,63c2,0,3.5-0.5,4.5-1.6
			s1.6-2.5,1.6-4.4c0-1.9-0.5-3.4-1.6-4.5c-1-1.1-2.5-1.6-4.5-1.6h-2.8v12H877.2z M887.2,58.5c0-1.2,0.2-2.3,0.8-3.2
			c0.5-0.9,1.2-1.7,2.1-2.2c0.9-0.5,1.8-0.8,2.9-0.8s2,0.2,2.7,0.7c0.8,0.5,1.4,1,1.8,1.7v-2.2h2v12h-2v-2.2c-0.4,0.7-1,1.3-1.8,1.8
			c-0.8,0.5-1.7,0.7-2.7,0.7c-1.1,0-2-0.3-2.9-0.8c-0.9-0.5-1.5-1.3-2-2.2S887.2,59.7,887.2,58.5z M897.4,58.5
			c0-0.9-0.2-1.7-0.6-2.4c-0.4-0.7-0.9-1.2-1.5-1.5s-1.3-0.5-2.1-0.5s-1.4,0.2-2.1,0.5c-0.6,0.3-1.1,0.9-1.5,1.5s-0.5,1.5-0.5,2.4
			c0,0.9,0.2,1.7,0.5,2.4c0.4,0.7,0.8,1.2,1.5,1.5c0.6,0.4,1.3,0.5,2.1,0.5s1.4-0.2,2.1-0.5s1.1-0.9,1.5-1.5
			C897.2,60.3,897.4,59.5,897.4,58.5z M905.3,54.2v7.1c0,0.6,0.1,1,0.4,1.3c0.2,0.2,0.7,0.4,1.3,0.4h1.5v1.7h-1.8
			c-1.1,0-2-0.3-2.5-0.8c-0.5-0.5-0.8-1.4-0.8-2.5v-7.1h-1.6v-1.6h1.6v-3h2v3h3.1v1.6H905.3z M910.1,58.5c0-1.2,0.2-2.3,0.8-3.2
			c0.5-0.9,1.2-1.7,2.1-2.2c0.9-0.5,1.8-0.8,2.9-0.8s2,0.2,2.7,0.7c0.8,0.5,1.4,1,1.8,1.7v-2.2h2v12h-2v-2.2c-0.4,0.7-1,1.3-1.8,1.8
			c-0.8,0.5-1.7,0.7-2.7,0.7c-1.1,0-2-0.3-2.9-0.8c-0.9-0.5-1.5-1.3-2-2.2S910.1,59.7,910.1,58.5z M920.3,58.5
			c0-0.9-0.2-1.7-0.6-2.4c-0.4-0.7-0.9-1.2-1.5-1.5s-1.3-0.5-2.1-0.5s-1.4,0.2-2.1,0.5c-0.6,0.3-1.1,0.9-1.5,1.5s-0.5,1.5-0.5,2.4
			c0,0.9,0.2,1.7,0.5,2.4c0.4,0.7,0.8,1.2,1.5,1.5c0.6,0.4,1.3,0.5,2.1,0.5s1.4-0.2,2.1-0.5s1.1-0.9,1.5-1.5
			C920.1,60.3,920.3,59.5,920.3,58.5z M943.6,64.6h-2l-8-12.2v12.2h-2V49.2h2l8,12.2V49.2h2V64.6z M957.8,49.3l-5,9.5v5.8h-2v-5.8
			l-5-9.5h2.2l3.8,7.8l3.8-7.8H957.8z M959.1,56.9c0-1.5,0.3-2.8,1-4c0.7-1.2,1.6-2.1,2.8-2.8c1.2-0.7,2.5-1,3.9-1
			c1.7,0,3.1,0.4,4.4,1.2c1.2,0.8,2.2,1.9,2.7,3.4h-2.4c-0.4-0.9-1-1.6-1.8-2.1s-1.8-0.8-2.9-0.8c-1.1,0-2,0.2-2.9,0.8
			c-0.8,0.5-1.5,1.2-2,2.1c-0.5,0.9-0.7,2-0.7,3.2c0,1.2,0.2,2.3,0.7,3.2c0.5,0.9,1.1,1.6,2,2.1c0.9,0.5,1.8,0.8,2.9,0.8
			c1.1,0,2.1-0.2,2.9-0.7c0.8-0.5,1.4-1.2,1.8-2.1h2.4c-0.6,1.5-1.5,2.6-2.7,3.4c-1.2,0.8-2.7,1.2-4.4,1.2c-1.4,0-2.7-0.3-3.9-1
			c-1.2-0.7-2.1-1.6-2.8-2.8C959.4,59.8,959.1,58.4,959.1,56.9z M977.5,64.7c-0.4,0-0.7-0.1-1-0.4s-0.4-0.6-0.4-1
			c0-0.4,0.1-0.7,0.4-1s0.6-0.4,1-0.4s0.7,0.1,0.9,0.4c0.3,0.3,0.4,0.6,0.4,1c0,0.4-0.1,0.7-0.4,1C978.1,64.6,977.8,64.7,977.5,64.7
			z"/>
		<path class="st2" d="M61.7,743.4h1316.7"/>
		<path class="st4" d="M61.7,743.4h1316.7"/>
		<path class="st2" d="M61.7,743.4h1316.7v58.2H61.7L61.7,743.4z"/>
		<path class="st3" d="M78.8,760.1c0.9,0,1.6,0.2,2.3,0.5s1.2,0.8,1.5,1.5c0.4,0.6,0.6,1.4,0.6,2.2c0,0.9-0.2,1.6-0.6,2.2
			c-0.4,0.6-0.9,1.1-1.5,1.4c-0.7,0.3-1.4,0.5-2.3,0.5H76v-8.3H78.8z M78.8,767.3c1,0,1.7-0.3,2.2-0.8c0.5-0.5,0.8-1.3,0.8-2.2
			s-0.3-1.7-0.8-2.2c-0.5-0.5-1.3-0.8-2.2-0.8h-1.4v6.1H78.8z M87.3,768.5c-0.6,0-1.1-0.1-1.5-0.3s-0.8-0.5-1.1-0.8
			s-0.4-0.8-0.4-1.2h1.5c0,0.4,0.2,0.7,0.4,0.9c0.2,0.2,0.6,0.3,1.1,0.3s0.8-0.1,1.1-0.3c0.3-0.2,0.4-0.5,0.4-0.9
			c0-0.3-0.1-0.5-0.3-0.7c-0.2-0.2-0.4-0.3-0.6-0.4c-0.2-0.1-0.6-0.2-1-0.3c-0.5-0.1-1-0.3-1.3-0.4c-0.3-0.2-0.6-0.4-0.9-0.7
			s-0.4-0.7-0.4-1.2c0-0.5,0.1-0.9,0.4-1.3s0.6-0.6,1-0.8s0.9-0.3,1.5-0.3c0.8,0,1.5,0.2,2,0.6c0.5,0.4,0.8,0.9,0.8,1.6h-1.5
			c0-0.3-0.2-0.6-0.4-0.8c-0.2-0.2-0.6-0.3-1-0.3c-0.4,0-0.7,0.1-1,0.3s-0.4,0.5-0.4,0.9c0,0.2,0.1,0.5,0.2,0.6
			c0.2,0.2,0.4,0.3,0.6,0.4c0.2,0.1,0.6,0.2,1,0.3c0.6,0.1,1,0.3,1.4,0.4s0.6,0.4,0.9,0.7s0.4,0.7,0.4,1.3c0,0.4-0.1,0.8-0.4,1.2
			s-0.6,0.7-1,0.9C88.4,768.4,87.9,768.5,87.3,768.5z M98.7,768.4h-1.4l-4.1-6.2v6.2h-1.4v-8.3h1.4l4.1,6.2v-6.2h1.4V768.4z
			 M106.6,760.1l-2.8,5.3v3h-1.4v-3l-2.8-5.3h1.5l1.9,4.1l1.9-4.1H106.6z M112.8,763.5v1.1h-4.9v-1.1H112.8z M120.8,762.5
			c-0.2-0.4-0.5-0.7-0.9-0.9c-0.4-0.2-0.8-0.3-1.3-0.3c-0.6,0-1.1,0.1-1.5,0.4c-0.4,0.2-0.8,0.6-1,1.1c-0.2,0.5-0.4,1-0.4,1.6
			c0,0.6,0.1,1.1,0.4,1.6c0.2,0.5,0.6,0.8,1,1.1c0.4,0.2,0.9,0.4,1.5,0.4c0.7,0,1.3-0.2,1.8-0.6c0.5-0.4,0.8-1,0.8-1.7h-3.1v-1.1
			h4.6v1.1c-0.1,0.7-0.3,1.3-0.7,1.8c-0.4,0.5-0.8,1-1.5,1.3c-0.6,0.3-1.2,0.5-2,0.5c-0.8,0-1.5-0.2-2.2-0.5
			c-0.6-0.4-1.2-0.9-1.5-1.5c-0.4-0.6-0.6-1.4-0.6-2.2c0-0.8,0.2-1.5,0.6-2.2c0.4-0.7,0.9-1.2,1.5-1.5c0.7-0.4,1.4-0.5,2.2-0.5
			c0.9,0,1.7,0.2,2.4,0.7c0.7,0.4,1.2,1,1.5,1.9H120.8z M128.3,768.4l-1.9-3.3h-1v3.3H124v-8.3h2.9c0.6,0,1.2,0.1,1.6,0.4
			c0.5,0.2,0.8,0.5,1,0.9s0.3,0.8,0.3,1.3c0,0.5-0.2,1-0.5,1.5c-0.3,0.4-0.8,0.7-1.5,0.9l2.1,3.4H128.3z M125.4,764h1.5
			c0.5,0,0.9-0.1,1.1-0.4c0.3-0.3,0.4-0.6,0.4-1c0-0.4-0.1-0.8-0.4-1c-0.2-0.2-0.6-0.4-1.2-0.4h-1.5V764z M136.6,766.7h-3.5
			l-0.6,1.7h-1.4l3-8.3h1.6l3,8.3h-1.4L136.6,766.7z M136.3,765.6l-1.4-3.9l-1.4,3.9H136.3z M144.9,760.1v1.1h-3.5v2.5h2.8v1.1h-2.8
			v3.7H140v-8.3H144.9z M151.1,760.1v1.1h-3.5v2.5h2.8v1.1h-2.8v3.7h-1.4v-8.3H151.1z M153.7,760.1v8.3h-1.4v-8.3H153.7z
			 M160.9,760.1v1.1h-2.2v7.2h-1.4v-7.2h-2.2v-1.1H160.9z M163.6,760.1v8.3h-1.4v-8.3H163.6z M170.5,763.5v1.1h-4.9v-1.1H170.5z
			 M177.8,760.1v1.1h-2.2v7.2h-1.4v-7.2H172v-1.1H177.8z M183.5,768.4l-1.9-3.3h-1v3.3h-1.4v-8.3h2.9c0.6,0,1.2,0.1,1.6,0.4
			c0.5,0.2,0.8,0.5,1,0.9s0.3,0.8,0.3,1.3c0,0.5-0.2,1-0.5,1.5c-0.3,0.4-0.8,0.7-1.5,0.9l2.1,3.4H183.5z M180.6,764h1.5
			c0.5,0,0.9-0.1,1.1-0.4c0.3-0.3,0.4-0.6,0.4-1c0-0.4-0.1-0.8-0.4-1c-0.2-0.2-0.6-0.4-1.2-0.4h-1.5V764z M191.8,766.7h-3.5
			l-0.6,1.7h-1.4l3-8.3h1.6l3,8.3h-1.4L191.8,766.7z M191.5,765.6l-1.4-3.9l-1.4,3.9H191.5z M194.7,764.2c0-0.8,0.2-1.5,0.6-2.2
			c0.4-0.7,0.9-1.2,1.5-1.5c0.7-0.4,1.4-0.5,2.2-0.5c0.9,0,1.7,0.2,2.4,0.7c0.7,0.4,1.2,1,1.5,1.9h-1.6c-0.2-0.5-0.5-0.8-0.9-1
			c-0.4-0.2-0.8-0.3-1.3-0.3c-0.6,0-1.1,0.1-1.5,0.4c-0.4,0.2-0.8,0.6-1,1.1c-0.2,0.5-0.4,1-0.4,1.6c0,0.6,0.1,1.2,0.4,1.6
			c0.2,0.5,0.6,0.8,1,1.1c0.4,0.2,0.9,0.4,1.5,0.4c0.5,0,0.9-0.1,1.3-0.3c0.4-0.2,0.7-0.5,0.9-1h1.6c-0.3,0.8-0.8,1.4-1.5,1.9
			c-0.7,0.4-1.5,0.6-2.4,0.6c-0.8,0-1.5-0.2-2.2-0.5c-0.6-0.4-1.2-0.9-1.5-1.5C194.9,765.8,194.7,765.1,194.7,764.2z M209,768.4
			l-3.2-3.7v3.7h-1.4v-8.3h1.4v3.8l3.2-3.8h1.7l-3.6,4.2l3.7,4.2H209z M213.4,760.1v8.3H212v-8.3H213.4z M222.1,768.4h-1.4l-4.1-6.2
			v6.2h-1.4v-8.3h1.4l4.1,6.2v-6.2h1.4V768.4z M229.9,762.5c-0.2-0.4-0.5-0.7-0.9-0.9c-0.4-0.2-0.8-0.3-1.3-0.3
			c-0.6,0-1.1,0.1-1.5,0.4c-0.4,0.2-0.8,0.6-1,1.1c-0.2,0.5-0.4,1-0.4,1.6c0,0.6,0.1,1.1,0.4,1.6c0.2,0.5,0.6,0.8,1,1.1
			c0.4,0.2,0.9,0.4,1.5,0.4c0.7,0,1.3-0.2,1.8-0.6c0.5-0.4,0.8-1,0.8-1.7h-3.1v-1.1h4.6v1.1c-0.1,0.7-0.3,1.3-0.7,1.8
			c-0.4,0.5-0.8,1-1.5,1.3c-0.6,0.3-1.2,0.5-2,0.5c-0.8,0-1.5-0.2-2.2-0.5c-0.6-0.4-1.2-0.9-1.5-1.5c-0.4-0.6-0.6-1.4-0.6-2.2
			c0-0.8,0.2-1.5,0.6-2.2c0.4-0.7,0.9-1.2,1.5-1.5c0.7-0.4,1.4-0.5,2.2-0.5c0.9,0,1.7,0.2,2.4,0.7c0.7,0.4,1.2,1,1.5,1.9H229.9z
			 M238.2,763.5v1.1h-4.9v-1.1H238.2z M248.9,760.1v8.3h-1.4v-5.7l-2.6,5.7h-0.9l-2.6-5.7v5.7h-1.4v-8.3h1.5l2.9,6.5l2.9-6.5H248.9z
			 M255.8,766.7h-3.5l-0.6,1.7h-1.4l3-8.3h1.6l3,8.3h-1.4L255.8,766.7z M255.4,765.6l-1.4-3.9l-1.4,3.9H255.4z M266,768.4h-1.4
			l-4.1-6.2v6.2h-1.4v-8.3h1.4l4.1,6.2v-6.2h1.4V768.4z M274.4,760.1v8.3H273v-3.7h-3.9v3.7h-1.4v-8.3h1.4v3.6h3.9v-3.6H274.4z
			 M281.2,766.7h-3.5l-0.6,1.7h-1.4l3-8.3h1.6l3,8.3h-1.4L281.2,766.7z M280.9,765.6l-1.4-3.9l-1.4,3.9H280.9z M290,760.1v1.1h-2.2
			v7.2h-1.4v-7.2h-2.2v-1.1H290z M296.7,760.1v1.1h-2.2v7.2h-1.4v-7.2h-2.2v-1.1H296.7z M303.1,766.7h-3.5l-0.6,1.7h-1.4l3-8.3h1.6
			l3,8.3h-1.4L303.1,766.7z M302.8,765.6l-1.4-3.9l-1.4,3.9H302.8z M313.3,768.4h-1.4l-4.1-6.2v6.2h-1.4v-8.3h1.4l4.1,6.2v-6.2h1.4
			V768.4z"/>
		<path class="st2" d="M61.7,107.5h396v595h-396L61.7,107.5z"/>
		<g transform="matrix(0.19368845144356955 0.0 0.0 0.19368845144356955 41.10236220472441 71.66272965879266)">
			<g>
				<defs>
					<rect id="SVGID_00000054229802889474594970000014026341201474436484_" x="930.4" y="1423.5" width="396" height="595"/>
				</defs>
				<clipPath id="SVGID_00000027582563985214651880000001099652567612215487_">
					<use xlink:href="#SVGID_00000054229802889474594970000014026341201474436484_"  style="overflow:visible;"/>
				</clipPath>
				<g style="clip-path:url(#SVGID_00000027582563985214651880000001099652567612215487_);enable-background:new    ;">
					
						<image style="overflow:visible;" width="1363" height="2048" xlink:href="4F1B18C22B23C259.jpeg"  transform="matrix(1.5 0 0 1.5 106.1046 184.9953)">
					</image>
				</g>
			</g>
		</g>
		<path class="st2" d="M481.6,107.5h687.7v515.8H481.6V107.5z"/>
		<g transform="matrix(0.22386981627296587 0.0 0.0 0.2238716535433071 321.0997375328084 71.66404199475066)">
			<g>
				<defs>
					<rect id="SVGID_00000176732914897600968450000014410314608094836353_" x="1909.3" y="1054.2" width="687.7" height="515.8"/>
				</defs>
				<clipPath id="SVGID_00000076578448418447706030000018402075664126381463_">
					<use xlink:href="#SVGID_00000176732914897600968450000014410314608094836353_"  style="overflow:visible;"/>
				</clipPath>
				
					<g transform="matrix(1 0 0 1 0 0)" style="clip-path:url(#SVGID_00000076578448418447706030000018402075664126381463_);enable-background:new    ;">
					
						<image style="overflow:visible;" width="2048" height="1536" xlink:href="4F1B18C22B23C25B.jpeg"  transform="matrix(1.5 0 0 1.5 717.1567 160.0558)">
					</image>
				</g>
			</g>
		</g>
		<path class="st2" d="M1196.9,107.5h181.4v160.9h-181.4V107.5z"/>
		<g transform="matrix(0.14718853511838462 0.0 0.0 0.14719163876368305 746.8118196382617 -39.52118806325356)">
			<g>
				<defs>
					<rect id="SVGID_00000091704223733323940220000002748035836883523993_" x="3583.7" y="1464.8" width="181.4" height="160.9"/>
				</defs>
				<clipPath id="SVGID_00000049930210567036236670000008829803950362679215_">
					<use xlink:href="#SVGID_00000091704223733323940220000002748035836883523993_"  style="overflow:visible;"/>
				</clipPath>
				
					<g transform="matrix(1 0 0 1 0 0)" style="clip-path:url(#SVGID_00000049930210567036236670000008829803950362679215_);enable-background:new    ;">
					
						<image style="overflow:visible;" width="1536" height="2048" xlink:href="4F1B18C22B23C259.jpeg"  transform="matrix(1.5 0 0 1.5 2536.9146 -134.2505)">
					</image>
				</g>
			</g>
		</g>
		<path class="st2" d="M1193.4,291.2h181.4V533h-181.4V291.2z"/>
		<g transform="matrix(0.07873149606299212 0.0 0.0 0.07873254593175853 795.5853028871392 194.10759475065618)">
			<g>
				<defs>
					<rect id="SVGID_00000180360584237242844550000009893816631489636505_" x="6113.9" y="2647.8" width="181.4" height="241.9"/>
				</defs>
				<clipPath id="SVGID_00000165930216945282273230000016674606072575815058_">
					<use xlink:href="#SVGID_00000180360584237242844550000009893816631489636505_"  style="overflow:visible;"/>
				</clipPath>
				<g style="clip-path:url(#SVGID_00000165930216945282273230000016674606072575815058_);enable-background:new    ;">
					
						<image style="overflow:visible;" width="1536" height="2048" xlink:href="4F1B18C22B23C25F.jpeg"  transform="matrix(1.5 0 0 1.5 5052.5542 1232.6952)">
					</image>
				</g>
			</g>
		</g>
	</g>
</g>
</svg>
